<?xml version="1.0" encoding="UTF-8"?><svg xmlns="http://www.w3.org/2000/svg" viewBox="0 0 275.48 208.81"><defs><style>.e{fill:#fac582;}</style></defs><g id="a"/><g id="b"><g id="c"><path id="d" class="e" d="M233.53,17.53C215.58,9.32,196.51,3.34,176.6,0c-2.51,4.32-5.29,10.16-7.24,14.76-21.17-3.07-42.2-3.07-63.07,0-1.95-4.59-4.88-10.44-7.24-14.76-20.05,3.34-39.11,9.32-56.95,17.53C6.04,70.72-3.7,122.64,1.17,173.87c23.94,17.41,47.06,27.98,69.76,34.94,5.56-7.52,10.58-15.59,14.9-24.09-8.22-3.07-16.01-6.82-23.53-11.27,1.95-1.39,3.9-2.92,5.71-4.46,45.38,20.75,94.53,20.75,139.36,0,1.95,1.53,3.75,3.07,5.71,4.46-7.52,4.46-15.31,8.22-23.53,11.27,4.32,8.49,9.32,16.56,14.9,24.09,22.69-6.96,45.94-17.54,69.76-34.94,5.98-59.3-9.48-110.81-40.66-156.33h-.02ZM92.08,142.27c-13.64,0-24.78-12.39-24.78-27.56s10.86-27.56,24.78-27.56,25.06,12.39,24.78,27.56c0,15.17-11,27.56-24.78,27.56h0Zm91.48,0c-13.64,0-24.79-12.39-24.79-27.56s10.87-27.56,24.79-27.56,25.06,12.39,24.78,27.56c0,15.17-10.86,27.56-24.78,27.56h0Z"/></g></g></svg>