<?xml version="1.0" encoding="utf-8"?>
<!-- Generator: Adobe Illustrator 26.2.1, SVG Export Plug-In . SVG Version: 6.00 Build 0)  -->
<svg version="1.1" id="Layer_1" xmlns="http://www.w3.org/2000/svg" xmlns:xlink="http://www.w3.org/1999/xlink" x="0px" y="0px"
	 viewBox="0 0 307.4 307.4" style="enable-background:new 0 0 307.4 307.4;" xml:space="preserve">
<style type="text/css">
	.st0{fill:#7D868C;}
	.st1{fill:#FAAB8A;}
	.st2{fill:#FFFFFF;}
	.st3{fill:#1E252B;}
	.st4{fill:#333E48;}
	.st5{fill:#C3C6C8;}
	.st6{fill:#E8E8E8;}
</style>
<g>
	<path class="st0" d="M294.7,111.2V93c0-1.8-0.9-3.4-2.4-4.4L156.5,1.8c-1.7-1.1-3.9-1.1-5.6,0L15.1,88.6c-1.5,1-2.4,2.6-2.4,4.4
		v18.2v25v145.8c0,13.9,11.4,25.3,25.3,25.3h231.2c13.9,0,25.3-11.4,25.3-25.3V136.2V111.2z"/>
	<path class="st1" d="M288.9,99.4L155.7,14.2c-1.2-0.8-2.8-0.8-4,0L18.5,99.4c-2.5,1.6-5.7-0.1-5.8-3.1c0-0.1,0-0.3,0-0.4v-3.7
		c0-1.3,0.7-2.5,1.7-3.2L151.7,1.3c1.2-0.8,2.8-0.8,4,0l137.2,87.8c1.1,0.7,1.7,1.9,1.7,3.2v3.7c0,0.1,0,0.3,0,0.4
		C294.6,99.2,291.3,101,288.9,99.4z"/>
	<g>
		<path class="st2" d="M70.6,55.4h166.2c4.6,0,8.3,3.7,8.3,8.3v202.4c0,4.6-3.7,8.3-8.3,8.3H70.6c-4.6,0-8.3-3.7-8.3-8.3V63.7
			C62.3,59.2,66,55.4,70.6,55.4z"/>
		<path class="st3" d="M215.4,88.6H92c-2.7,0-4.8-2.2-4.8-4.8c0-2.7,2.2-4.8,4.8-4.8h123.4c2.7,0,4.8,2.2,4.8,4.8
			S218.1,88.6,215.4,88.6z"/>
		<path class="st4" d="M215.4,119.2H92c-1.8,0-3.2-1.4-3.2-3.2s1.4-3.2,3.2-3.2h123.4c1.8,0,3.2,1.4,3.2,3.2
			C218.6,117.8,217.2,119.2,215.4,119.2z"/>
		<path class="st4" d="M215.4,137H92c-1.8,0-3.2-1.4-3.2-3.2s1.4-3.2,3.2-3.2h123.4c1.8,0,3.2,1.4,3.2,3.2
			C218.6,135.5,217.2,137,215.4,137z"/>
		<path class="st4" d="M207.5,154.7H99.9c-1.8,0-3.2-1.4-3.2-3.2s1.4-3.2,3.2-3.2h107.6c1.8,0,3.2,1.4,3.2,3.2
			C210.8,153.3,209.3,154.7,207.5,154.7z"/>
		<path class="st4" d="M215.4,172.5H92c-1.8,0-3.2-1.4-3.2-3.2s1.4-3.2,3.2-3.2h123.4c1.8,0,3.2,1.4,3.2,3.2
			C218.6,171,217.2,172.5,215.4,172.5z"/>
		<path class="st4" d="M205.9,190.2H101.6c-1.8,0-3.2-1.4-3.2-3.2s1.4-3.2,3.2-3.2h104.3c1.8,0,3.2,1.4,3.2,3.2
			S207.6,190.2,205.9,190.2z"/>
		<path class="st4" d="M179.3,208h-51.3c-1.8,0-3.2-1.4-3.2-3.2s1.4-3.2,3.2-3.2h51.3c1.8,0,3.2,1.4,3.2,3.2
			C182.6,206.5,181.1,208,179.3,208z"/>
	</g>
	<path class="st5" d="M153.7,232.1L12.7,142v145.3c0,11.1,9.1,20.2,20.2,20.2h241.6c11.1,0,20.2-9.1,20.2-20.2V142L153.7,232.1z"/>
	<path class="st6" d="M153.7,191.3l-141,90.2v5.7c0,11.1,9.1,20.2,20.2,20.2h241.6c11.1,0,20.2-9.1,20.2-20.2v-5.7L153.7,191.3z"/>
</g>
</svg>
